HIERARCHY
ROOT Hips
{
	OFFSET 0.00000 0.00000 0.00000
	CHANNELS 6 Xposition Yposition Zposition Zrotation Yrotation Xrotation 
	JOINT LHipJoint
	{
		OFFSET 0 0 0
		CHANNELS 3 Zrotation Yrotation Xrotation
		JOINT LeftHip
		{
			OFFSET 1.64577 -1.42384 0.94276
			CHANNELS 3 Zrotation Yrotation Xrotation
			JOINT LeftKnee
			{
				OFFSET 2.11538 -5.81197 0.00000
				CHANNELS 3 Zrotation Yrotation Xrotation
				JOINT LeftAnkle
				{
					OFFSET 2.36541 -6.49893 0.00000
					CHANNELS 3 Zrotation Yrotation Xrotation
					JOINT LeftToe
					{
						OFFSET 0.17759 -0.48793 1.73865
						CHANNELS 3 Zrotation Yrotation Xrotation
						End Site
						{
							OFFSET 0.00000 -0.00000 0.91205
						}
					}
				}
			}
		}
	}
	JOINT RHipJoint
	{
		OFFSET 0 0 0
		CHANNELS 3 Zrotation Yrotation Xrotation
		JOINT RightHip
		{
			OFFSET -1.43750 -1.42384 0.94276
			CHANNELS 3 Zrotation Yrotation Xrotation
			JOINT RightKnee
			{
				OFFSET -2.10480 -5.78291 0.00000
				CHANNELS 3 Zrotation Yrotation Xrotation
				JOINT RightAnkle
				{
					OFFSET -2.34880 -6.45329 0.00000
					CHANNELS 3 Zrotation Yrotation Xrotation
					JOINT RightToe
					{
						OFFSET -0.22842 -0.62757 1.80469
						CHANNELS 3 Zrotation Yrotation Xrotation
						End Site
						{
							OFFSET -0.00000 -0.00000 0.95886
						}
					}
				}
			}
		}
	}
	JOINT lowerback
	{
		OFFSET 0 0 0
		CHANNELS 3 Zrotation Yrotation Xrotation
		JOINT Chest
		{
			OFFSET 0.06217 1.93758 -0.49272
			CHANNELS 3 Zrotation Yrotation Xrotation
			JOINT Chest2
			{
				OFFSET -0.03114 2.03621 -0.05830
				CHANNELS 3 Zrotation Yrotation Xrotation
				JOINT lowerneck
				{
					OFFSET 0 0 0
					CHANNELS 3 Zrotation Yrotation Xrotation
					JOINT Neck
					{
						OFFSET 0.04421 1.41010 0.26562
						CHANNELS 3 Zrotation Yrotation Xrotation
						JOINT Head
						{
							OFFSET -0.13407 1.43847 0.06181
							CHANNELS 3 Zrotation Yrotation Xrotation
							End Site
							{
								OFFSET -0.04980 1.45844 -0.00689
							}
						}
					}
				}
				JOINT LeftCollar
				{
					OFFSET 0 0 0
					CHANNELS 3 Zrotation Yrotation Xrotation
					JOINT LeftShoulder
					{
						OFFSET 2.18382 1.47753 -0.35694
CHANNELS 3 Zrotation Xrotation Yrotation
						JOINT LeftElbow
						{
OFFSET 0 -5.054600 0.000000
CHANNELS 3 Zrotation Xrotation Yrotation
							JOINT LeftWrist
							{
OFFSET 0 -3.390130 0.000000
CHANNELS 3 Zrotation Xrotation Yrotation
								JOINT lhand
								{
									OFFSET 0 0 0
CHANNELS 3 Zrotation Xrotation Yrotation
									JOINT LFingers
									{
OFFSET 0 -0.572420 -0.000000
CHANNELS 3 Zrotation Xrotation Yrotation
										End Site
										{
OFFSET 0 -0.461500 -0.000000
										}
									}
								}
								JOINT LThumb
								{
OFFSET 0 0.000000 0.000000
CHANNELS 3 Zrotation Xrotation Yrotation
									End Site
									{
OFFSET 0 -0.468550 0.468550
									}
								}
							}
						}
					}
				}
				JOINT RightCollar
				{
					OFFSET 0 0 0
					CHANNELS 3 Zrotation Yrotation Xrotation
					JOINT RightShoulder
					{
						OFFSET -2.06033 1.72839 -0.47437
CHANNELS 3 Zrotation Xrotation Yrotation
						JOINT RightElbow
						{
OFFSET 0 -5.070100 0.000000
CHANNELS 3 Zrotation Xrotation Yrotation
							JOINT RightWrist
							{
OFFSET 0 -3.149570 -0.000000
CHANNELS 3 Zrotation Xrotation Yrotation
								JOINT rhand
								{
									OFFSET 0 0 0
CHANNELS 3 Zrotation Xrotation Yrotation
									JOINT RFingers
									{
OFFSET 0 -0.718190 -0.000000
CHANNELS 3 Zrotation Xrotation Yrotation
										End Site
										{
OFFSET 0 -0.579020 -0.000000
										}
									}
								}
								JOINT RThumb
								{
OFFSET 0 0.000000 0.000000
CHANNELS 3 Zrotation Xrotation Yrotation
									End Site
									{
OFFSET 0 -0.587860 0.587860
									}
								}
							}
						}
					}
				}
			}
		}
	}
}
MOTION
Frames: 8
Frame Time: 0.008333333333333333
-30.638300 15.218700 0.536200 -144.854000 83.164800 -139.997000 0.000000 0.000000 0.000000 -13.871000 -25.488100 -28.665300 2.871500 10.484100 30.559200 1.467300 1.493100 -23.473400 2.354200 -9.567800 -27.588000 0.000000 0.000000 0.000000 32.244600 -5.275800 16.732800 -4.413900 -12.691700 38.224900 2.318500 -26.188000 -15.475000 -0.079900 1.823000 -5.016900 2.116400 0.851000 10.725300 -0.954500 1.474600 4.097800 -2.357400 0.823200 -1.665200 3.283100 1.501300 -15.915300 -1.571700 1.577300 2.006800 -0.988200 0.789400 3.543500 0.000000 -0.000000 0.000000 -11.158700 49.945000 -9.314400 109.035200 -58.585600 76.406600 35.850800 -14.189900 -14.166000 0.000000 0.000000 0.000000 -7.125000 0.000000 0.000000 8.065200 47.114100 -0.423400 0.000000 -0.000000 0.000000 -20.963800 15.077900 57.100500 -130.514400 -52.785900 -94.236100 -38.552700 -43.394200 -24.266600 0.000000 0.000000 0.000000 7.125000 0.000000 -0.000000 -5.493100 0.139300 -5.505100
-30.376077 15.172116 0.531535 -147.367720 83.073153 -142.618885 0.000000 0.000000 0.000000 -14.416008 -25.227294 -27.986762 2.887189 10.510087 30.645076 1.483715 0.650966 -23.308595 2.305474 -9.474114 -27.290770 0.000000 0.000000 0.000000 31.858453 -5.286997 15.277994 -5.183187 -13.496685 41.429944 2.260685 -26.058858 -16.195941 -0.068116 1.670083 -4.595125 1.908329 0.730083 10.751115 -1.045767 1.292378 4.089472 -2.314065 0.731484 -1.700034 3.319351 1.534925 -15.802746 -1.506179 1.612687 2.018031 -0.970057 0.810135 3.526152 0.000000 0.000000 0.000000 -10.781677 49.064369 -9.764824 109.198554 -58.560200 76.545971 31.003441 -17.823458 -9.063467 0.000000 0.000000 0.000000 -7.125000 0.000000 0.000000 3.994834 40.966649 -0.768319 0.000000 0.000000 0.000000 -20.886598 15.658329 57.250653 -129.677726 -53.114266 -93.565544 -38.476431 -43.401112 -23.982882 0.000000 0.000000 0.000000 7.125000 0.000000 0.000000 -5.507303 0.492513 -5.484849
-30.113854 15.125533 0.526869 -149.881439 82.981507 -145.240770 0.000000 0.000000 0.000000 -14.961016 -24.966488 -27.308223 2.902878 10.536075 30.730951 1.500130 -0.191168 -23.143790 2.256748 -9.380429 -26.993540 0.000000 0.000000 0.000000 31.472307 -5.298193 13.823189 -5.952473 -14.301669 44.634988 2.202870 -25.929717 -16.916881 -0.056332 1.517165 -4.173349 1.700257 0.609166 10.776929 -1.137033 1.110156 4.081143 -2.270730 0.639768 -1.734868 3.355602 1.568549 -15.690192 -1.440658 1.648074 2.029262 -0.951915 0.830869 3.508804 0.000000 0.000000 0.000000 -10.404653 48.183738 -10.215247 109.361908 -58.534800 76.685342 26.156081 -21.457017 -3.960935 0.000000 0.000000 0.000000 -7.125000 0.000000 0.000000 -0.075533 34.819198 -1.113239 0.000000 0.000000 0.000000 -20.809397 16.238759 57.400806 -128.841052 -53.442633 -92.894989 -38.400163 -43.408023 -23.699164 0.000000 0.000000 0.000000 7.125000 0.000000 0.000000 -5.521506 0.845726 -5.464598
-29.852369 15.077223 0.522340 -152.525653 82.908091 -147.993002 0.000000 0.000000 0.000000 -15.525614 -24.720497 -26.661877 2.937427 10.591209 30.915305 1.500160 -0.942724 -22.875107 2.247989 -9.357433 -26.925661 0.000000 0.000000 0.000000 31.042550 -5.310025 12.374961 -6.732980 -15.090729 47.836643 2.141816 -25.760211 -17.518673 -0.051926 1.438817 -3.957782 1.459418 0.495646 10.815881 -1.234702 0.934049 4.068532 -2.216438 0.550932 -1.781069 3.406335 1.602633 -15.583125 -1.385192 1.681782 2.047894 -0.939935 0.850465 3.495500 0.000000 0.000000 0.000000 -10.013302 47.290806 -10.686264 109.506688 -58.512291 76.808868 21.772745 -24.722121 0.641746 0.000000 0.000000 0.000000 -7.125000 0.000000 0.000000 -3.751479 29.279958 -1.441300 0.000000 0.000000 0.000000 -20.725962 16.826244 57.540109 -127.987458 -53.773456 -92.209797 -38.308663 -43.396343 -23.399907 0.000000 0.000000 0.000000 7.125000 0.000000 0.000000 -5.529422 1.221615 -5.435864
-29.597092 15.014397 0.518953 -156.267204 82.987989 -151.841336 0.000000 0.000000 0.000000 -16.254952 -24.599097 -26.286236 3.130570 10.891446 31.927774 1.362414 -0.932598 -21.732909 2.575318 -9.928878 -28.786415 0.000000 0.000000 0.000000 30.246066 -5.327201 10.982048 -7.607840 -15.745872 51.009790 2.053521 -25.251281 -17.118530 -0.109568 1.987522 -5.476243 0.943023 0.444328 10.965308 -1.386202 0.809365 4.019910 -2.070018 0.486309 -1.922859 3.578846 1.640577 -15.522200 -1.414290 1.701377 2.128759 -0.979780 0.860487 3.516200 0.000000 0.000000 0.000000 -9.501470 46.294442 -11.330453 109.495284 -58.514088 76.799157 21.291427 -24.888862 1.041129 0.000000 0.000000 0.000000 -7.125000 0.000000 0.000000 -4.110705 28.855210 -1.627600 0.000000 0.000000 0.000000 -20.590116 17.473058 57.588178 -126.991577 -54.124941 -91.401530 -38.089084 -43.228324 -22.969976 0.000000 0.000000 0.000000 7.125000 0.000000 0.000000 -5.484462 1.788187 -5.335785
-29.341815 14.951571 0.515567 -160.008755 83.067886 -155.689669 0.000000 0.000000 0.000000 -16.984290 -24.477696 -25.910595 3.323712 11.191682 32.940242 1.224667 -0.922473 -20.590712 2.902648 -10.500322 -30.647169 0.000000 0.000000 0.000000 29.449583 -5.344376 9.589135 -8.482701 -16.401015 54.182938 1.965227 -24.742351 -16.718388 -0.167210 2.536228 -6.994704 0.426629 0.393010 11.114735 -1.537703 0.684681 3.971287 -1.923597 0.421686 -2.064649 3.751358 1.678521 -15.461275 -1.443387 1.720971 2.209624 -1.019625 0.870509 3.536900 0.000000 0.000000 0.000000 -8.989637 45.298077 -11.974641 109.483880 -58.515885 76.789447 20.810109 -25.055602 1.440511 0.000000 0.000000 0.000000 -7.125000 0.000000 0.000000 -4.469931 28.430463 -1.813900 0.000000 0.000000 0.000000 -20.454270 18.119873 57.636248 -125.995696 -54.476427 -90.593262 -37.869505 -43.060305 -22.540045 0.000000 0.000000 0.000000 7.125000 0.000000 0.000000 -5.439503 2.354759 -5.235706
-29.088132 14.890413 0.511872 -163.945110 83.145168 -159.721716 0.000000 0.000000 0.000000 -17.778174 -24.196896 -25.515811 3.517516 11.486152 33.941075 1.105681 -0.968887 -19.578817 3.006334 -10.627447 -31.105417 0.000000 0.000000 0.000000 28.611024 -5.324926 8.164996 -9.357201 -17.015573 57.294772 1.875529 -24.233738 -16.386067 -0.220952 3.019947 -8.334645 -0.117994 0.338937 11.286111 -1.685655 0.550367 3.906269 -1.756213 0.352781 -2.234528 3.898042 1.721923 -15.367346 -1.461320 1.753376 2.272881 -1.050060 0.887046 3.544745 0.000000 0.000000 0.000000 -8.510867 44.294257 -12.621312 109.533936 -58.507780 76.832110 20.479067 -25.071266 1.585905 0.000000 0.000000 0.000000 -7.125000 0.000000 0.000000 -4.722837 28.276290 -1.929499 0.000000 0.000000 0.000000 -20.326696 18.745936 57.688270 -124.863173 -54.858264 -89.669772 -37.646679 -42.937226 -22.191033 0.000000 0.000000 0.000000 7.125000 0.000000 0.000000 -5.375937 2.827351 -5.127363
-28.840354 14.835432 0.507034 -168.603129 83.212763 -164.434336 0.000000 0.000000 0.000000 -18.811170 -23.325595 -25.050113 3.713768 11.759261 34.898805 1.056195 -1.224751 -19.049637 2.281523 -9.108572 -26.368020 0.000000 0.000000 0.000000 27.616594 -5.169797 6.625178 -10.230367 -17.479785 60.179467 1.780634 -23.726294 -16.304995 -0.260244 3.262921 -9.013253 -0.767193 0.274660 11.538796 -1.820464 0.380378 3.780514 -1.511165 0.268012 -2.508466 3.949049 1.785544 -15.151154 -1.437890 1.833238 2.270912 -1.045636 0.927720 3.504969 0.000000 0.000000 0.000000 -8.154578 43.262816 -13.277180 109.811676 -58.462993 77.068795 20.704728 -24.527260 0.790389 0.000000 0.000000 0.000000 -7.125000 0.000000 0.000000 -4.581877 29.124471 -1.783182 0.000000 0.000000 0.000000 -20.229762 19.295125 57.754931 -123.224452 -55.352541 -88.319434 -37.411826 -42.980630 -22.141788 0.000000 0.000000 0.000000 7.125000 0.000000 0.000000 -5.243443 2.951793 -4.988407
